<?xml version="1.0" standalone="no"?>
<!DOCTYPE svg PUBLIC "-//W3C//DTD SVG 20010904//EN"
 "http://www.w3.org/TR/2001/REC-SVG-20010904/DTD/svg10.dtd">
<svg version="1.0" xmlns="http://www.w3.org/2000/svg"
 width="128.000000pt" height="128.000000pt" viewBox="0 0 128.000000 128.000000"
 preserveAspectRatio="xMidYMid meet">
<metadata>
Created by potrace 1.14, written by Peter Selinger 2001-2017
</metadata>
<g transform="translate(0.000000,128.000000) scale(0.100000,-0.100000)"
fill="#000000" stroke="none">
<path d="M1087 1263 c-2 -2 -60 -5 -128 -8 -178 -7 -190 -10 -218 -70 -11 -24
-31 -49 -43 -56 -12 -6 -31 -20 -42 -31 -12 -11 -61 -39 -111 -63 -110 -52
-120 -60 -218 -160 -123 -126 -193 -244 -212 -357 -3 -18 -10 -48 -16 -66 -6
-18 -8 -36 -5 -39 10 -10 -15 -45 -29 -39 -22 8 -47 -18 -53 -55 -3 -19 -7
-98 -8 -177 l-3 -142 520 0 520 0 27 32 c38 45 40 52 47 195 4 70 9 162 11
203 5 87 5 84 1 130 -5 49 -22 78 -80 133 -27 26 -48 50 -45 52 2 3 44 7 93
10 95 5 116 14 95 40 -22 26 -69 47 -160 71 -83 21 -85 23 -90 55 -11 66 -8
73 49 103 46 25 66 29 147 31 110 4 134 10 134 35 0 28 -13 32 -105 34 -46 1
-86 4 -90 8 -11 10 35 30 79 34 40 4 86 27 86 42 0 24 -48 51 -98 54 -29 3
-54 3 -55 1z"/>
</g>
</svg>
